<svg xmlns="http://www.w3.org/2000/svg" xmlns:xlink="http://www.w3.org/1999/xlink" viewBox="0 0 64 64"><defs><style>.cls-1{fill:url(#linear-gradient);}.cls-2{fill:url(#linear-gradient-2);}.cls-3{fill:url(#linear-gradient-3);}.cls-4{fill:url(#linear-gradient-4);}</style><linearGradient id="linear-gradient" x1="12.56" y1="29.43" x2="51.44" y2="29.43" gradientUnits="userSpaceOnUse"><stop offset="0" stop-color="#fc9512"/><stop offset="0.21" stop-color="#fd7b11"/><stop offset="0.75" stop-color="#fe3e0e"/><stop offset="1" stop-color="#ff260d"/></linearGradient><linearGradient id="linear-gradient-2" x1="21.59" y1="41.11" x2="46.65" y2="41.11" gradientUnits="userSpaceOnUse"><stop offset="0" stop-color="#fdfbf7"/><stop offset="0.35" stop-color="#f5f0df"/><stop offset="1" stop-color="#e3d7a9"/></linearGradient><linearGradient id="linear-gradient-3" x1="9.05" y1="54.81" x2="54.95" y2="54.81" gradientUnits="userSpaceOnUse"><stop offset="0" stop-color="#141c2c"/><stop offset="0.84" stop-color="#090d14"/><stop offset="1" stop-color="#070a0f"/></linearGradient><linearGradient id="linear-gradient-4" x1="16.39" y1="23.84" x2="40.35" y2="23.84" xlink:href="#linear-gradient-2"/></defs><g id="Layer_16" data-name="Layer 16"><path class="cls-1" d="M51.39,52,37.57,6.33a1,1,0,0,0-1-.7H27.39a1,1,0,0,0-1,.7L12.61,52a1,1,0,0,0,1,1.29H50.44A1,1,0,0,0,51.39,52Z"/><path class="cls-2" d="M44.43,29,22.18,51.24l-.3.3a1,1,0,0,0,.71,1.7h6.72A1,1,0,0,0,30,53l1.71-1.71L46.65,36.31C46,34.12,45.09,31.14,44.43,29Z"/><rect class="cls-3" x="9.05" y="51.24" width="45.91" height="7.13" rx="1"/><polygon class="cls-4" points="16.39 39.48 40.35 15.52 38.13 8.2 20.53 25.8 16.39 39.48"/></g></svg>